<svg width="280" height="61" fill="none" xmlns="http://www.w3.org/2000/svg"><path d="M90.385 40.28h.87c6.73 0 13.459-.007 20.188-.02.898 0 1.802-.055 2.694-.146 3.232-.325 5.484-2.893 5.35-6.099-.057-1.346-.685-2.464-1.567-3.456.108-.143.182-.25.264-.35 2.23-2.754 1.564-6.532-1.452-8.327-1.372-.819-2.885-1.037-4.436-1.04a9861.78 9861.78 0 00-21.063-.023h-.81v3.759h1.02c6.862 0 13.724.011 20.586.035a9.12 9.12 0 011.659.14c.435.07.835.29 1.134.62.299.331.481.755.515 1.204.035.874-.57 1.645-1.557 1.863a7.583 7.583 0 01-1.65.162c-6.889.022-13.777.037-20.665.046h-1.057v3.804h1.035c6.862 0 13.724.014 20.586.042a8.525 8.525 0 011.656.143c1.14.234 1.697.92 1.646 1.93-.045.96-.736 1.652-1.831 1.789-.603.08-1.211.122-1.819.127-6.783.02-13.566.031-20.35.036h-.955l.01 3.76zm69.999-15.703h1.023c5.643.05 11.286.075 16.929.173a10.58 10.58 0 013.185.517c2.248.764 3.682 2.38 3.882 4.828.194 2.37-.85 4.167-2.901 5.328-1.389.783-2.917.94-4.459.952-5.539.048-11.076.087-16.611.117h-1.016v3.749c.204.016.36.039.513.039 5.095-.023 10.191-.03 15.264-.081a40.784 40.784 0 004.752-.26c3.133-.404 5.732-1.876 7.353-4.672 2.758-4.708 1.057-10.442-3.72-12.978-2.162-1.145-4.5-1.382-6.863-1.408-5.538-.055-11.076-.045-16.614-.058-.229 0-.459.032-.72.052l.003 3.703zm-21.948 4.643v11.014h4.949v-7.207h.923c2.462-.02 4.927.016 7.389-.068 2.825-.098 3.987-1.249 4.2-4.08.102-1.343.112-2.692.134-4.038.022-1.346 0-2.627 0-3.966h-4.309v3.117c-.025 1.21 0 2.429-.146 3.625-.115 1.005-.586 1.392-1.593 1.483-1.006.09-2.009.11-3.016.117-2.808.013-5.64.003-8.531.003zm-14.51-8.358v2.685c.032 1.95-.025 3.901.144 5.816.194 2.217 1.124 3.202 3.283 3.482 1.701.218 3.433.198 5.153.244 1.334.035 2.672 0 3.984 0V29.22h-1.643c-1.561-.026-3.125 0-4.685-.104-1.369-.085-1.911-.745-1.911-2.14v-6.124l-4.325.01z" fill="#000"/><path d="M90.386 40.28v-3.758h.955c6.794 0 13.577-.012 20.35-.036a14.85 14.85 0 001.819-.127c1.095-.136 1.786-.829 1.831-1.788.051-1.011-.507-1.697-1.647-1.931a8.526 8.526 0 00-1.656-.143c-6.859-.022-13.721-.036-20.585-.042H90.41V28.65h1.058c6.887-.013 13.775-.028 20.665-.046a7.574 7.574 0 001.649-.162c.988-.218 1.593-.975 1.558-1.863a2.03 2.03 0 00-.515-1.204c-.3-.33-.699-.549-1.135-.62a9.12 9.12 0 00-1.659-.14c-6.862-.019-13.724-.03-20.586-.035h-1.022v-3.762h.809c7.021 0 14.042.008 21.063.023 1.551 0 3.064.221 4.436 1.04 3.016 1.795 3.672 5.573 1.453 8.326-.083.101-.156.208-.265.351.883.976 1.51 2.11 1.567 3.456.134 3.206-2.118 5.767-5.35 6.1-.892.09-1.796.142-2.694.145-6.728.016-13.458.022-20.188.02h-.87zm69.999-15.703v-3.703c.261-.02.49-.052.72-.052 5.538 0 11.076 0 16.614.059 2.363.026 4.7.263 6.863 1.407 4.777 2.536 6.477 8.271 3.72 12.979-1.637 2.795-4.22 4.268-7.354 4.671-1.577.18-3.164.267-4.751.26-5.096.052-10.191.059-15.264.082-.153 0-.319-.023-.513-.04v-3.748h1.016c5.535-.037 11.072-.076 16.611-.117 1.541 0 3.07-.169 4.458-.952 2.051-1.161 3.096-2.959 2.902-5.329-.201-2.448-1.634-4.064-3.882-4.828a10.6 10.6 0 00-3.185-.516c-5.643-.098-11.287-.124-16.93-.173h-1.025zm-21.949 4.643h8.55c1.007 0 2.016-.03 3.016-.117 1-.088 1.475-.478 1.593-1.483.137-1.196.121-2.415.146-3.624.019-1.021 0-2.042 0-3.118h4.309v3.966a53.9 53.9 0 01-.134 4.038c-.213 2.832-1.376 3.982-4.2 4.08-2.462.084-4.927.049-7.389.068h-.942v7.208h-4.949V29.22zm-14.51-8.359h4.306v6.125c0 1.395.557 2.055 1.911 2.14 1.56.097 3.124.077 4.684.103h1.644v3.87c-1.312 0-2.65.025-3.984 0-1.72-.046-3.452-.027-5.153-.245-2.159-.28-3.089-1.264-3.283-3.482-.16-1.934-.102-3.884-.125-5.835-.025-.875 0-1.756 0-2.676z" fill="#000"/></svg>