<svg width="144" height="84" fill="none" xmlns="http://www.w3.org/2000/svg"><path d="M22.385 51.73h.87c6.73 0 13.459-.006 20.187-.02.898 0 1.803-.055 2.694-.146 3.233-.325 5.484-2.893 5.35-6.099-.057-1.346-.684-2.464-1.566-3.455.108-.143.181-.25.264-.352 2.23-2.753 1.564-6.53-1.452-8.325-1.373-.82-2.886-1.038-4.437-1.04a9245.25 9245.25 0 00-21.063-.023h-.809v3.758h1.02c6.861 0 13.723.012 20.585.035a9.13 9.13 0 011.66.14c.435.071.834.29 1.134.62.299.331.48.755.515 1.204.035.875-.57 1.645-1.557 1.863a7.572 7.572 0 01-1.65.162c-6.89.022-13.778.037-20.665.046h-1.058v3.804h1.035c6.862 0 13.724.014 20.586.042a8.52 8.52 0 011.656.143c1.14.234 1.698.92 1.647 1.931-.045.96-.736 1.652-1.832 1.788-.603.08-1.21.122-1.818.127-6.783.02-13.567.031-20.35.036h-.956l.01 3.761zm69.999-15.702h1.022c5.643.049 11.287.075 16.93.172a10.6 10.6 0 013.185.517c2.248.764 3.681 2.38 3.882 4.828.194 2.37-.851 4.167-2.901 5.328-1.389.784-2.918.94-4.459.953-5.539.047-11.076.086-16.611.117h-1.016v3.748c.204.016.36.04.513.04 5.095-.024 10.19-.03 15.264-.082a40.55 40.55 0 004.751-.26c3.134-.403 5.733-1.876 7.354-4.672 2.757-4.707 1.057-10.442-3.72-12.978-2.163-1.144-4.5-1.382-6.863-1.408-5.538-.055-11.076-.045-16.615-.058-.229 0-.458.032-.72.052l.004 3.703zM70.435 40.67v11.015h4.95v-7.208h.923c2.461-.02 4.926.016 7.388-.068 2.825-.098 3.987-1.249 4.2-4.08.103-1.343.112-2.692.135-4.038.022-1.346 0-2.627 0-3.966h-4.31v3.117c-.025 1.21 0 2.429-.146 3.625-.114 1.005-.586 1.392-1.592 1.483-1.007.09-2.01.11-3.016.117-2.809.013-5.64.003-8.532.003zm-14.51-8.358v2.685c.033 1.95-.024 3.901.144 5.816.194 2.217 1.124 3.202 3.284 3.482 1.7.218 3.433.198 5.152.244 1.335.036 2.672 0 3.984 0V40.67h-1.643c-1.56-.026-3.124 0-4.685-.104-1.369-.084-1.91-.744-1.91-2.14v-6.124l-4.325.01z" fill="#000"/><path d="M22.386 51.73v-3.758h.955c6.794 0 13.577-.012 20.35-.036a14.847 14.847 0 001.818-.127c1.096-.136 1.787-.829 1.831-1.788.051-1.01-.506-1.697-1.646-1.93a8.528 8.528 0 00-1.656-.144c-6.86-.022-13.722-.036-20.586-.042h-1.041V40.1h1.057c6.888-.013 13.776-.028 20.666-.045a7.577 7.577 0 001.65-.163c.986-.218 1.592-.975 1.556-1.863a2.026 2.026 0 00-.515-1.203 1.947 1.947 0 00-1.134-.62 9.122 9.122 0 00-1.66-.14c-6.861-.02-13.723-.032-20.585-.036h-1.022v-3.76h.809c7.02 0 14.042.007 21.063.022 1.55 0 3.064.221 4.436 1.04 3.016 1.795 3.672 5.573 1.452 8.326-.082.101-.156.209-.264.352.882.975 1.51 2.11 1.567 3.455.134 3.206-2.118 5.768-5.35 6.1-.892.09-1.796.142-2.694.146-6.729.015-13.458.021-20.188.02h-.87zm69.998-15.702v-3.703c.261-.02.49-.052.72-.052 5.538 0 11.076 0 16.614.058 2.363.026 4.701.264 6.863 1.408 4.777 2.536 6.478 8.27 3.72 12.978-1.637 2.796-4.22 4.269-7.354 4.672a40.55 40.55 0 01-4.751.26c-5.096.052-10.191.058-15.264.081-.153 0-.319-.023-.513-.039v-3.748h1.016c5.535-.037 11.072-.076 16.611-.117 1.542 0 3.07-.17 4.459-.953 2.051-1.16 3.095-2.958 2.901-5.328-.201-2.448-1.634-4.064-3.882-4.828a10.599 10.599 0 00-3.185-.517c-5.643-.098-11.286-.124-16.93-.172h-1.025zM70.435 40.67h8.551c1.007 0 2.016-.03 3.016-.117 1-.088 1.475-.478 1.592-1.482.137-1.197.121-2.416.147-3.625.019-1.021 0-2.042 0-3.118h4.309v3.966a53.9 53.9 0 01-.134 4.038c-.213 2.831-1.376 3.982-4.2 4.08-2.462.084-4.927.049-7.39.068h-.942v7.208h-4.949V40.67zm-14.509-8.358h4.305v6.124c0 1.395.558 2.055 1.911 2.14 1.56.097 3.124.078 4.685.104h1.643v3.869c-1.312 0-2.65.026-3.984 0-1.72-.046-3.452-.026-5.153-.244-2.159-.28-3.089-1.265-3.283-3.482-.16-1.934-.102-3.885-.124-5.836-.026-.874 0-1.755 0-2.675z" fill="#000"/></svg>