<svg width="234" height="40" fill="none" xmlns="http://www.w3.org/2000/svg"><path d="M11.682 33.023c-1.84 0-3.496-.399-4.964-1.195-1.468-.821-2.625-2.003-3.47-3.546-.847-1.567-1.27-3.483-1.27-5.748V16.34c0-3.384.933-5.972 2.8-7.764 1.89-1.816 4.429-2.724 7.614-2.724 3.185 0 5.636.858 7.352 2.575 1.717 1.692 2.576 3.981 2.576 6.868v.149h-4.367v-.299c0-.995-.2-1.89-.597-2.687a4.437 4.437 0 00-1.83-1.94c-.82-.474-1.865-.71-3.134-.71-1.867 0-3.335.572-4.405 1.717-1.07 1.144-1.605 2.725-1.605 4.74v6.345c0 1.99.535 3.583 1.605 4.778 1.07 1.17 2.563 1.754 4.48 1.754 1.915 0 3.309-.51 4.18-1.53.895-1.046 1.343-2.377 1.343-3.994v-.448h-6.718V19.4H22.32v13.1h-4.07v-2.575h-.634c-.2.447-.51.92-.933 1.418-.423.473-1.033.87-1.829 1.194-.771.324-1.829.486-3.173.486zm26.244 0c-1.99 0-3.745-.349-5.262-1.046-1.518-.721-2.713-1.754-3.584-3.097-.87-1.344-1.306-2.986-1.306-4.927v-.97h4.367v.97c0 1.742.523 3.048 1.568 3.919 1.045.846 2.45 1.269 4.217 1.269 1.792 0 3.136-.361 4.031-1.083.921-.746 1.381-1.704 1.381-2.873 0-.772-.224-1.394-.672-1.867-.422-.497-1.045-.896-1.866-1.194-.796-.324-1.766-.61-2.911-.859l-1.157-.298c-1.717-.373-3.197-.859-4.442-1.456-1.244-.622-2.214-1.418-2.91-2.389-.673-.97-1.009-2.239-1.009-3.807 0-1.542.374-2.874 1.12-3.993.771-1.12 1.829-1.978 3.173-2.576 1.368-.597 2.973-.895 4.814-.895 1.842 0 3.484.31 4.927.933 1.443.622 2.576 1.555 3.397 2.799.82 1.244 1.231 2.787 1.231 4.628v1.27h-4.33v-1.27c0-1.07-.223-1.928-.671-2.575-.423-.672-1.02-1.157-1.792-1.456-.771-.298-1.692-.448-2.762-.448-1.542 0-2.724.311-3.545.933-.797.598-1.195 1.444-1.195 2.538 0 .722.174 1.332.523 1.83.373.472.92.87 1.642 1.194.722.323 1.617.597 2.687.82l1.157.262c1.767.398 3.31.896 4.629 1.493 1.343.597 2.388 1.406 3.135 2.426.771.995 1.157 2.277 1.157 3.845 0 1.592-.398 2.985-1.194 4.18-.797 1.17-1.929 2.09-3.397 2.762-1.443.672-3.16 1.008-5.15 1.008zm15.43-.523V6.373h8.211l5.226 23.178h.634l5.226-23.178h8.211V32.5h-4.255V9.546h-.634L70.786 32.5h-7.352L58.246 9.546h-.598V32.5h-4.292z" fill="#000"/><path d="M100.109 6.939V33.06" stroke="#000" stroke-width=".774"/><path d="M121.245 7.487c2.024 0 3.506 1.095 3.906 3.003h-1.418c-.309-1.096-1.16-1.779-2.539-1.779-1.612 0-2.849 1.225-2.849 3.597 0 2.307 1.147 3.635 2.836 3.635 1.186 0 2.642-.503 2.642-2.307v-.207h-2.436v-1.25h3.803V17h-1.148l-.064-1.147c-.58.89-1.624 1.315-2.9 1.315-2.682 0-4.241-1.986-4.241-4.86 0-2.888 1.714-4.821 4.408-4.821zM134.298 17l-1.998-3.945c-.193.013-.399.013-.606.013h-1.611V17h-1.469V7.654h2.964c2.514 0 4.022.529 4.022 2.694 0 1.341-.631 2.102-1.804 2.462l2.152 4.19h-1.65zm-2.552-8.134h-1.663v3.004h1.689c1.379 0 2.32-.207 2.32-1.496 0-1.34-1.018-1.508-2.346-1.508zM137.94 17l3.467-9.346h1.625L146.551 17h-1.599l-.734-2.05h-4.061l-.722 2.05h-1.495zm4.228-7.747l-1.573 4.46h3.171l-1.598-4.46zm13.084 3.068c0-3.055-1.831-3.455-3.7-3.455h-1.018v6.922h1.018c1.869 0 3.7-.386 3.7-3.467zm-6.188-4.667h2.552c2.965 0 5.157 1.07 5.157 4.667 0 3.61-2.192 4.679-5.157 4.679h-2.552V7.654zm-28.412 21.247l-1.147-.232c-1.328-.271-2.591-1.019-2.591-2.591 0-1.766 1.83-2.591 3.416-2.591 1.727 0 3.184.786 3.558 2.668h-1.418c-.31-1.096-1.315-1.444-2.205-1.444-.683 0-1.856.323-1.856 1.302 0 .774.606 1.173 1.418 1.34l1.109.233c1.495.31 3.132.864 3.132 2.759 0 1.856-1.792 2.823-3.596 2.823-2.153 0-3.635-1.2-3.842-3.159h1.444c.271 1.29 1.122 1.934 2.449 1.934 1.225 0 2.063-.567 2.063-1.483 0-.966-.941-1.353-1.934-1.56zM127.027 33v-9.346h6.472v1.25h-5.002v2.669h4.718v1.238h-4.718v2.939h5.002V33h-6.472zm8.447-9.346h1.611l2.488 7.709 2.424-7.709h1.547L140.36 33h-1.663l-3.223-9.346zM146.131 33v-9.346h6.471v1.25H147.6v2.669h4.718v1.238H147.6v2.939h5.002V33h-6.471zm17.019 0h-2.05l-4.125-7.735V33h-1.443v-9.346h2.049l4.125 7.722v-7.722h1.444V33zm13.501 0h-1.521l-2.488-7.863V33h-1.444v-9.346h2.359l2.334 7.631 2.333-7.63h2.359V33h-1.444v-7.863L176.651 33zm8.556-4.68c0 2.334 1.276 3.623 2.913 3.623 1.612 0 2.901-1.29 2.901-3.622 0-2.347-1.289-3.61-2.901-3.61-1.637 0-2.913 1.264-2.913 3.61zm7.322 0c0 2.85-1.702 4.848-4.409 4.848-2.72 0-4.421-1.998-4.421-4.847 0-2.85 1.701-4.834 4.421-4.834 2.707 0 4.409 1.985 4.409 4.834zm4.643 4.68v-8.095h-3.004v-1.25h7.464v1.25h-2.991V33h-1.469zm7.604-4.68c0 2.334 1.276 3.623 2.914 3.623 1.611 0 2.9-1.29 2.9-3.622 0-2.347-1.289-3.61-2.9-3.61-1.638 0-2.914 1.264-2.914 3.61zm7.322 0c0 2.85-1.701 4.848-4.408 4.848-2.72 0-4.422-1.998-4.422-4.847 0-2.85 1.702-4.834 4.422-4.834 2.707 0 4.408 1.985 4.408 4.834zm8.821 4.68l-1.998-3.945c-.194.013-.4.013-.606.013h-1.612V33h-1.469v-9.346h2.965c2.513 0 4.022.529 4.022 2.694 0 1.341-.632 2.102-1.805 2.463L222.569 33h-1.65zm-2.553-8.134h-1.663v3.003h1.689c1.379 0 2.32-.206 2.32-1.495 0-1.34-1.018-1.508-2.346-1.508zm10.503 4.035l-1.148-.232c-1.327-.271-2.591-1.019-2.591-2.591 0-1.766 1.831-2.591 3.416-2.591 1.728 0 3.184.786 3.558 2.668h-1.418c-.309-1.096-1.315-1.444-2.204-1.444-.683 0-1.856.323-1.856 1.302 0 .774.605 1.173 1.418 1.34l1.108.233c1.496.31 3.133.864 3.133 2.759 0 1.856-1.792 2.823-3.597 2.823-2.153 0-3.635-1.2-3.841-3.159h1.443c.271 1.29 1.122 1.934 2.45 1.934 1.224 0 2.062-.567 2.062-1.483 0-.966-.941-1.353-1.933-1.56z" fill="#000"/></svg>