<svg xmlns="http://www.w3.org/2000/svg" fill="none" viewBox="0 0 36 45"><path fill="#000" fill-rule="evenodd" d="M19.32 43.5L18 44.67l-1.32-1.15C5.62 33.85 0 25.4 0 18 0 7.5 8.2 0 18 0s18 7.5 18 18c0 7.41-5.62 15.85-16.68 25.5z" clip-rule="evenodd"/><path fill="#fff" d="M21.43 20.98v-7.51h2.36l1.5 6.66h.19l1.5-6.66h2.36v7.5H28.1v-6.6h-.18l-1.49 6.6h-2.11l-1.5-6.6h-.17v6.6h-1.23zm-4.43.15c-.58 0-1.08-.1-1.52-.3-.43-.21-.78-.5-1.03-.9a2.55 2.55 0 01-.37-1.41v-.28h1.25v.28c0 .5.15.88.45 1.13.3.24.7.36 1.22.36.51 0 .9-.1 1.15-.31.27-.22.4-.49.4-.83 0-.22-.06-.4-.2-.53-.11-.15-.3-.26-.53-.35-.23-.09-.5-.17-.83-.24l-.34-.09a5.8 5.8 0 01-1.27-.42c-.36-.18-.64-.4-.84-.68-.2-.28-.29-.65-.29-1.1 0-.44.1-.82.32-1.15.22-.32.53-.56.91-.74.4-.17.86-.25 1.39-.25.53 0 1 .09 1.41.26.42.18.74.45.98.8.24.37.35.81.35 1.34v.36h-1.24v-.36c0-.3-.07-.55-.2-.74-.12-.2-.29-.33-.5-.42a2.2 2.2 0 00-.8-.13c-.45 0-.79.1-1.02.27a.86.86 0 00-.35.73c0 .2.05.38.16.53.1.13.26.25.47.34.2.1.46.17.77.23l.33.08c.51.11.95.26 1.33.43.39.17.69.4.9.7.23.28.34.65.34 1.1 0 .46-.12.86-.35 1.2-.23.34-.55.6-.97.8-.42.19-.91.29-1.48.29zm-7.55 0c-.53 0-1-.12-1.42-.35a2.54 2.54 0 01-1-1.02c-.25-.45-.37-1-.37-1.65v-1.78c0-.97.27-1.72.8-2.23a3.03 3.03 0 012.2-.78c.91 0 1.62.24 2.11.74.5.48.74 1.14.74 1.97v.04h-1.26V16c0-.29-.05-.55-.17-.77a1.28 1.28 0 00-.52-.56c-.24-.14-.54-.2-.9-.2-.54 0-.96.16-1.27.49-.3.33-.46.78-.46 1.36v1.82c0 .58.15 1.03.46 1.38.3.33.74.5 1.29.5s.95-.15 1.2-.44c.26-.3.39-.68.39-1.15v-.13H9.33v-1.08h3.18v3.77h-1.17v-.74h-.18a1.4 1.4 0 01-.8.75c-.22.09-.52.14-.9.14z"/></svg>