<svg xmlns="http://www.w3.org/2000/svg" xmlns:xlink="http://www.w3.org/1999/xlink" width="0" height="0" style="position:absolute">
	
		<symbol id="icon-arrow-circle" viewBox="0 0 12 13">
			<path d="M12 6.5a6.02 6.02 0 0 1-12 .75h6.17L4.45 8.97l1.06 1.06 3-3 .54-.53-.53-.53-3.01-3-1.06 1.06 1.72 1.72H0a6.02 6.02 0 0 1 12 .75z"></path>
		</symbol>
	
		<symbol id="icon-arrow-down" viewBox="0 0 14 14">
			<path d="M7 8.8L2.1 4 1 5l6 6 6-6-1.1-1L7 8.8z"></path>
		</symbol>
	
		<symbol id="icon-arrow-left" viewBox="0 0 24 24">
			<path d="M10 12l8-8-2-2L6 12l10 10 2-2-8-8z"></path>
		</symbol>
	
		<symbol id="icon-arrow-right" viewBox="0 0 24 24">
			<path d="M14 12l-8 8 2 2 10-10L8 2 6 4l8 8z"></path>
		</symbol>
	
		<symbol id="icon-circle-checked" viewBox="0 0 25 24">
			<path d="M12.5 23a11 11 0 1 1 0-22 11 11 0 0 1 0 22zm0-2a9 9 0 1 0 0-18 9 9 0 0 0 0 18zm3.3-12.7l-5.3 5.3-2.3-2.3-1.4 1.4 3.7 3.7 6.7-6.7-1.4-1.4z"></path>
		</symbol>
	
		<symbol id="icon-close" viewBox="0 0 24 24">
			<path d="M12 10.6l6.4-6.4 1.4 1.4-6.4 6.4 6.4 6.4-1.4 1.4-6.4-6.4-6.4 6.4-1.4-1.4 6.4-6.4-6.4-6.4 1.4-1.4 6.4 6.4z"></path>
		</symbol>
	
		<symbol id="icon-fb" viewBox="0 0 32 32">
			<path d="M28 16.07C28 9.4 22.63 4 16 4S4 9.4 4 16.07C4 22.1 8.39 27.1 14.13 28v-8.44h-3.05v-3.49h3.04v-2.66c0-3.02 1.8-4.7 4.54-4.7 1.31 0 2.68.24 2.68.24v2.97h-1.51c-1.5 0-1.95.93-1.95 1.89v2.26h3.32l-.53 3.5h-2.8V28C23.62 27.1 28 22.1 28 16.07z"></path>
		</symbol>
	
		<symbol id="icon-inst" viewBox="0 0 32 32">
			<path d="M21.3 4H10.7C7 4 4 7 4 10.8v10.4C4 25 7 28 10.8 28h10.4c3.8 0 6.8-3 6.8-6.8V10.8C28 7 25 4 21.2 4zM16 11.5c2.5 0 4.5 2 4.5 4.5s-2 4.5-4.5 4.5-4.5-2-4.5-4.5 2-4.5 4.5-4.5zm4.5-2.3c0-.8.7-1.4 1.5-1.4s1.5.6 1.5 1.5c0 .8-.7 1.4-1.5 1.4s-1.5-.6-1.5-1.4z"></path>
		</symbol>
	
		<symbol id="icon-play" viewBox="0 0 32 32">
			<path d="M5 0l27 16L5 32V0zm3.8 6.6v18.8L24.6 16 8.8 6.6z"></path>
		</symbol>
	
		<symbol id="icon-sep" viewBox="0 0 6 10">
			<path d="M5.9.7l-5.2 9-.7-.4 5.2-9 .7.4z"></path>
		</symbol>
	
		<symbol id="icon-slider-next" viewBox="0 0 17 31">
			<path fill-rule="evenodd" clip-rule="evenodd" d="M1.707.293L.293 1.707 14.086 15.5.293 29.293l1.414 1.414L16.914 15.5 1.707.293z"></path>
		</symbol>
	
		<symbol id="icon-slider-prev" viewBox="0 0 18 31">
			<path fill-rule="evenodd" clip-rule="evenodd" d="M15.793.293l1.414 1.414L3.414 15.5l13.793 13.793-1.414 1.414L.586 15.5 15.793.293z"></path>
		</symbol>
	
		<symbol id="icon-sticker" viewBox="0 0 42 42">
			<path d="M6.8 14.2a14.2 14.2 0 1 1 24.8 9.4L36 38.9l-6.5-2.6-4.2 5.7-4-13.7a14.1 14.1 0 0 1-.7 0L16.7 42l-4.2-5.7L6 38.9l4.4-15.3a14.1 14.1 0 0 1-3.6-9.4zm5.3 11L9 35.5l4.1-1.7 2.7 3.7 2.7-9.4c-2.5-.4-4.7-1.4-6.5-3zm11.3 3l2.7 9.3 2.6-3.7 4.2 1.7-3-10.3c-1.8 1.5-4 2.5-6.5 3zM21 2a12.1 12.1 0 1 0 0 24.3A12.1 12.1 0 0 0 21 2zm7.3 7.7l-9 11.3-5-5 1.3-1.4 3.6 3.4 7.5-9.5 1.6 1.2z"></path>
		</symbol>
	
		<symbol id="icon-telegram" viewBox="0 0 32 32">
			<g clip-path="url(#a)"><path fill-rule="evenodd" clip-rule="evenodd" d="M28 16c0 6.627-5.373 12-12 12S4 22.627 4 16 9.373 4 16 4s12 5.373 12 12zm-11.57-3.141c-1.167.486-3.5 1.49-6.998 3.014-.568.226-.866.447-.893.663-.045.366.412.51 1.035.705l.262.084c.613.199 1.437.432 1.865.441.39.009.823-.152 1.302-.48 3.268-2.207 4.956-3.322 5.061-3.346.075-.017.179-.038.249.024s.063.18.056.212c-.046.193-1.84 1.862-2.77 2.726-.29.27-.495.46-.537.504-.094.098-.19.19-.282.279-.57.548-.996.96.024 1.632.49.323.882.59 1.273.856.427.291.853.581 1.405.943.14.092.274.188.405.28.497.355.944.674 1.496.623.32-.03.652-.331.82-1.23.397-2.126 1.179-6.73 1.36-8.628a2.116 2.116 0 0 0-.02-.472.506.506 0 0 0-.171-.325c-.144-.117-.366-.142-.465-.14-.452.008-1.144.249-4.477 1.635z"></path></g><defs><clipPath id="a"><path transform="translate(4 4)" d="M0 0h24v24H0z"></path></clipPath></defs>
		</symbol>
	
		<symbol id="icon-tick-circle" viewBox="0 0 12 13">
			<path d="M6 12.5a6 6 0 0 0 5.18-9.04l-5.13 5.6-.55.6-.55-.6L1.7 5.5l1.1-1.02 2.7 2.95 4.74-5.18A6 6 0 1 0 6 12.5z"></path>
		</symbol>
	
		<symbol id="icon-tiktok" viewBox="0 0 32 32">
			<g clip-path="url(#a)"><path fill-rule="evenodd" clip-rule="evenodd" d="M21.25 4h-10.5C7 4 4 7 4 10.75v10.5C4 25 7 28 10.75 28h10.5C25 28 28 25 28 21.25v-10.5C28 7 25 4 21.25 4zm-.681 7.192c.673.51 1.514.813 2.424.813H23v2.598a6.534 6.534 0 0 1-2.57-.52 6.442 6.442 0 0 1-1.462-.854l.012 5.84a4.9 4.9 0 0 1-1.462 3.479A4.97 4.97 0 0 1 13.99 24a4.973 4.973 0 0 1-3.528-1.452 4.923 4.923 0 0 1-.221-6.769 4.98 4.98 0 0 1 3.749-1.683c.255 0 .504.019.75.056V16.8a2.363 2.363 0 1 0-.873 4.606c.306.019.6-.025.874-.116a2.367 2.367 0 0 0 1.617-2.244l.003-3.908V8h2.602a4.048 4.048 0 0 0 1.605 3.192zm2.43.81v.002-.002z"></path></g><defs><clipPath id="a"><path transform="translate(4 4)" d="M0 0h24v24H0z"></path></clipPath></defs>
		</symbol>
	
</svg>
