<svg width="36" height="45" fill="none" xmlns="http://www.w3.org/2000/svg"><path fill-rule="evenodd" clip-rule="evenodd" d="M19.316 43.507L18 44.655l-1.316-1.148C5.623 33.847 0 25.414 0 18 0 7.501 8.194 0 18 0s18 7.501 18 18c0 7.413-5.623 15.847-16.684 25.507z" fill="#000"/><path d="M21.43 20.975v-7.51h2.36l1.503 6.663h.182l1.502-6.662h2.36v7.51h-1.223v-6.598h-.182l-1.491 6.597h-2.114l-1.491-6.597h-.172v6.597h-1.233zm-4.434.151c-.572 0-1.076-.1-1.512-.3a2.453 2.453 0 01-1.03-.89c-.25-.387-.376-.859-.376-1.417v-.278h1.255v.278c0 .501.15.877.45 1.127.301.243.705.365 1.213.365.515 0 .901-.104 1.159-.311.264-.215.397-.49.397-.826a.752.752 0 00-.193-.537c-.122-.143-.3-.257-.537-.343a5.163 5.163 0 00-.837-.247l-.332-.086a5.81 5.81 0 01-1.277-.418 2.233 2.233 0 01-.837-.687c-.193-.279-.29-.643-.29-1.094 0-.443.108-.826.323-1.148.221-.322.525-.569.912-.74.393-.172.854-.258 1.383-.258.53 0 1.002.09 1.416.269.415.178.74.447.977.804.236.358.354.801.354 1.33v.365h-1.245v-.364c0-.308-.064-.555-.193-.74a1.03 1.03 0 00-.515-.42 2.2 2.2 0 00-.794-.128c-.443 0-.783.09-1.019.268-.229.172-.343.415-.343.73 0 .207.05.382.15.526.107.135.265.25.472.343.208.093.465.171.773.236l.332.075c.508.114.951.257 1.33.429.387.172.687.404.901.697.222.286.333.655.333 1.105 0 .458-.114.858-.343 1.202-.23.336-.555.6-.976.794-.415.193-.909.29-1.48.29zm-7.544 0a2.937 2.937 0 01-1.426-.343 2.536 2.536 0 01-.998-1.02c-.243-.45-.365-1-.365-1.651V16.33c0-.973.268-1.716.805-2.231.543-.522 1.273-.784 2.188-.784.916 0 1.62.247 2.114.74.493.487.74 1.145.74 1.975v.043h-1.255v-.086c0-.286-.058-.544-.172-.773a1.276 1.276 0 00-.526-.558c-.236-.136-.536-.203-.9-.203-.537 0-.96.164-1.267.493-.307.329-.461.783-.461 1.363v1.823c0 .572.154 1.03.461 1.373.308.337.737.505 1.288.505.55 0 .95-.147 1.201-.44.258-.3.386-.683.386-1.148v-.129h-1.93V17.21h3.175v3.765h-1.17v-.74h-.182a1.73 1.73 0 01-.268.408c-.122.135-.297.25-.526.343-.222.093-.525.14-.912.14z" fill="#fff"/></svg>